<svg width="100" height="100" viewBox="0 0 100 100" fill="none" xmlns="http://www.w3.org/2000/svg">
<rect x="2" y="2" width="96" height="96" fill="white"/>
<rect x="2" y="2" width="96" height="96" stroke="black" stroke-width="4"/>
<path d="M64.1121 49.7647H66.9357V52.5882H64.1121V49.7647ZM64.1121 46.9412H66.9357V49.7647H64.1121V46.9412ZM64.1121 44.1176H66.9357V46.9412H64.1121V44.1176ZM64.1121 41.2941H66.9357V44.1176H64.1121V41.2941ZM64.1121 38.4706H66.9357V41.2941H64.1121V38.4706ZM64.1121 35.6471H66.9357V38.4706H64.1121V35.6471ZM64.1121 32.8235H66.9357V35.6471H64.1121V32.8235ZM64.1121 30H66.9357V32.8235H64.1121V30ZM61.2886 30H64.1121V32.8235H61.2886V30ZM61.2886 27.1765H64.1121V30H61.2886V27.1765ZM61.2886 24.3529H64.1121V27.1765H61.2886V24.3529ZM58.4651 24.3529H61.2886V27.1765H58.4651V24.3529ZM58.4651 27.1765H61.2886V30H58.4651V27.1765ZM58.4651 30H61.2886V32.8235H58.4651V30ZM58.4651 32.8235H61.2886V35.6471H58.4651V32.8235ZM58.4651 35.6471H61.2886V38.4706H58.4651V35.6471ZM58.4651 38.4706H61.2886V41.2941H58.4651V38.4706ZM58.4651 41.2941H61.2886V44.1176H58.4651V41.2941ZM58.4651 44.1176H61.2886V46.9412H58.4651V44.1176ZM58.4651 46.9412H61.2886V49.7647H58.4651V46.9412ZM58.4651 49.7647H61.2886V52.5882H58.4651V49.7647ZM58.4651 52.5882H61.2886V55.4118H58.4651V52.5882ZM58.4651 55.4118H61.2886V58.2353H58.4651V55.4118ZM61.2886 52.5882H64.1121V55.4118H61.2886V52.5882ZM61.2886 49.7647H64.1121V52.5882H61.2886V49.7647ZM61.2886 46.9412H64.1121V49.7647H61.2886V46.9412ZM61.2886 44.1176H64.1121V46.9412H61.2886V44.1176ZM61.2886 41.2941H64.1121V44.1176H61.2886V41.2941ZM61.2886 38.4706H64.1121V41.2941H61.2886V38.4706ZM61.2886 35.6471H64.1121V38.4706H61.2886V35.6471ZM61.2886 32.8235H64.1121V35.6471H61.2886V32.8235ZM55.6415 32.8235H58.4651V35.6471H55.6415V32.8235ZM52.818 32.8235H55.6415V35.6471H52.818V32.8235ZM55.6415 30H58.4651V32.8235H55.6415V30ZM52.818 30H55.6415V32.8235H52.818V30ZM49.9945 30H52.818V32.8235H49.9945V30ZM47.171 30H49.9945V32.8235H47.171V30ZM44.3474 30H47.171V32.8235H44.3474V30ZM41.5239 30H44.3474V32.8235H41.5239V30ZM38.7004 30H41.5239V32.8235H38.7004V30ZM38.7004 32.8235H41.5239V35.6471H38.7004V32.8235ZM38.7004 35.6471H41.5239V38.4706H38.7004V35.6471ZM38.7004 38.4706H41.5239V41.2941H38.7004V38.4706ZM38.7004 41.2941H41.5239V44.1176H38.7004V41.2941ZM38.7004 44.1176H41.5239V46.9412H38.7004V44.1176ZM38.7004 46.9412H41.5239V49.7647H38.7004V46.9412ZM38.7004 49.7647H41.5239V52.5882H38.7004V49.7647ZM41.5239 49.7647H44.3474V52.5882H41.5239V49.7647ZM41.5239 52.5882H44.3474V55.4118H41.5239V52.5882ZM44.3474 52.5882H47.171V55.4118H44.3474V52.5882ZM47.171 52.5882H49.9945V55.4118H47.171V52.5882ZM49.9945 52.5882H52.818V55.4118H49.9945V52.5882ZM52.818 52.5882H55.6415V55.4118H52.818V52.5882ZM52.818 49.7647H55.6415V52.5882H52.818V49.7647ZM49.9945 49.7647H52.818V52.5882H49.9945V49.7647ZM47.171 49.7647H49.9945V52.5882H47.171V49.7647ZM44.3474 49.7647H47.171V52.5882H44.3474V49.7647ZM55.6415 49.7647H58.4651V52.5882H55.6415V49.7647ZM55.6415 46.9412H58.4651V49.7647H55.6415V46.9412ZM52.818 46.9412H55.6415V49.7647H52.818V46.9412ZM55.6415 44.1176H58.4651V46.9412H55.6415V44.1176ZM55.6415 35.6471H58.4651V38.4706H55.6415V35.6471ZM55.6415 38.4706H58.4651V41.2941H55.6415V38.4706ZM55.6415 41.2941H58.4651V44.1176H55.6415V41.2941ZM55.6415 52.5882H58.4651V55.4118H55.6415V52.5882ZM55.6415 55.4118H58.4651V58.2353H55.6415V55.4118ZM55.6415 58.2353H58.4651V61.0588H55.6415V58.2353ZM52.818 58.2353H55.6415V61.0588H52.818V58.2353ZM49.9945 58.2353H52.818V61.0588H49.9945V58.2353ZM47.171 58.2353H49.9945V61.0588H47.171V58.2353ZM44.3474 58.2353H47.171V61.0588H44.3474V58.2353ZM44.3474 55.4118H47.171V58.2353H44.3474V55.4118ZM41.5239 55.4118H44.3474V58.2353H41.5239V55.4118ZM41.5239 58.2353H44.3474V61.0588H41.5239V58.2353ZM47.171 55.4118H49.9945V58.2353H47.171V55.4118ZM49.9945 55.4118H52.818V58.2353H49.9945V55.4118ZM52.818 55.4118H55.6415V58.2353H52.818V55.4118ZM55.6415 21.5294H58.4651V24.3529H55.6415V21.5294ZM55.6415 24.3529H58.4651V27.1765H55.6415V24.3529ZM55.6415 27.1765H58.4651V30H55.6415V27.1765ZM52.818 27.1765H55.6415V30H52.818V27.1765ZM52.818 24.3529H55.6415V27.1765H52.818V24.3529ZM52.818 21.5294H55.6415V24.3529H52.818V21.5294ZM49.9945 21.5294H52.818V24.3529H49.9945V21.5294ZM47.171 21.5294H49.9945V24.3529H47.171V21.5294ZM44.3474 21.5294H47.171V24.3529H44.3474V21.5294ZM41.5239 21.5294H44.3474V24.3529H41.5239V21.5294ZM38.7004 21.5294H41.5239V24.3529H38.7004V21.5294ZM35.8768 21.5294H38.7004V24.3529H35.8768V21.5294ZM33.0533 21.5294H35.8768V24.3529H33.0533V21.5294ZM30.2298 21.5294H33.0533V24.3529H30.2298V21.5294ZM30.2298 24.3529H33.0533V27.1765H30.2298V24.3529ZM30.2298 27.1765H33.0533V30H30.2298V27.1765ZM30.2298 30H33.0533V32.8235H30.2298V30ZM33.0533 30H35.8768V32.8235H33.0533V30ZM33.0533 27.1765H35.8768V30H33.0533V27.1765ZM35.8768 27.1765H38.7004V30H35.8768V27.1765ZM38.7004 27.1765H41.5239V30H38.7004V27.1765ZM41.5239 27.1765H44.3474V30H41.5239V27.1765ZM44.3474 27.1765H47.171V30H44.3474V27.1765ZM47.171 27.1765H49.9945V30H47.171V27.1765ZM49.9945 27.1765H52.818V30H49.9945V27.1765ZM49.9945 24.3529H52.818V27.1765H49.9945V24.3529ZM47.171 24.3529H49.9945V27.1765H47.171V24.3529ZM44.3474 24.3529H47.171V27.1765H44.3474V24.3529ZM41.5239 24.3529H44.3474V27.1765H41.5239V24.3529ZM38.7004 24.3529H41.5239V27.1765H38.7004V24.3529ZM35.8768 24.3529H38.7004V27.1765H35.8768V24.3529ZM33.0533 32.8235H35.8768V35.6471H33.0533V32.8235ZM33.0533 35.6471H35.8768V38.4706H33.0533V35.6471ZM33.0533 24.3529H35.8768V27.1765H33.0533V24.3529ZM35.8768 30H38.7004V32.8235H35.8768V30ZM35.8768 32.8235H38.7004V35.6471H35.8768V32.8235ZM35.8768 35.6471H38.7004V38.4706H35.8768V35.6471ZM35.8768 38.4706H38.7004V41.2941H35.8768V38.4706ZM35.8768 41.2941H38.7004V44.1176H35.8768V41.2941ZM35.8768 44.1176H38.7004V46.9412H35.8768V44.1176ZM35.8768 46.9412H38.7004V49.7647H35.8768V46.9412ZM35.8768 49.7647H38.7004V52.5882H35.8768V49.7647ZM33.0533 49.7647H35.8768V52.5882H33.0533V49.7647ZM33.0533 46.9412H35.8768V49.7647H33.0533V46.9412ZM33.0533 44.1176H35.8768V46.9412H33.0533V44.1176ZM33.0533 41.2941H35.8768V44.1176H33.0533V41.2941ZM30.2298 38.4706H33.0533V41.2941H30.2298V38.4706ZM30.2298 35.6471H33.0533V38.4706H30.2298V35.6471ZM30.2298 32.8235H33.0533V35.6471H30.2298V32.8235ZM30.2298 41.2941H33.0533V44.1176H30.2298V41.2941ZM30.2298 44.1176H33.0533V46.9412H30.2298V44.1176ZM33.0533 38.4706H35.8768V41.2941H33.0533V38.4706ZM30.2298 46.9412H33.0533V49.7647H30.2298V46.9412ZM30.2298 49.7647H33.0533V52.5882H30.2298V49.7647ZM30.2298 52.5882H33.0533V55.4118H30.2298V52.5882ZM30.2298 55.4118H33.0533V58.2353H30.2298V55.4118ZM33.0533 55.4118H35.8768V58.2353H33.0533V55.4118ZM35.8768 55.4118H38.7004V58.2353H35.8768V55.4118ZM38.7004 55.4118H41.5239V58.2353H38.7004V55.4118ZM38.7004 58.2353H41.5239V61.0588H38.7004V58.2353ZM35.8768 58.2353H38.7004V61.0588H35.8768V58.2353ZM33.0533 58.2353H35.8768V61.0588H33.0533V58.2353ZM30.2298 58.2353H33.0533V61.0588H30.2298V58.2353ZM33.0533 52.5882H35.8768V55.4118H33.0533V52.5882ZM35.8768 52.5882H38.7004V55.4118H35.8768V52.5882ZM38.7004 52.5882H41.5239V55.4118H38.7004V52.5882ZM30.2298 61.0588H33.0533V63.8824H30.2298V61.0588ZM30.2298 63.8824H33.0533V66.7059H30.2298V63.8824ZM30.2298 66.7059H33.0533V69.5294H30.2298V66.7059ZM30.2298 69.5294H33.0533V72.3529H30.2298V69.5294ZM30.2298 72.3529H33.0533V75.1765H30.2298V72.3529ZM30.2298 75.1765H33.0533V78H30.2298V75.1765ZM33.0533 75.1765H35.8768V78H33.0533V75.1765ZM35.8768 75.1765H38.7004V78H35.8768V75.1765ZM38.7004 75.1765H41.5239V78H38.7004V75.1765ZM38.7004 72.3529H41.5239V75.1765H38.7004V72.3529ZM38.7004 69.5294H41.5239V72.3529H38.7004V69.5294ZM38.7004 66.7059H41.5239V69.5294H38.7004V66.7059ZM38.7004 63.8824H41.5239V66.7059H38.7004V63.8824ZM38.7004 61.0588H41.5239V63.8824H38.7004V61.0588ZM35.8768 61.0588H38.7004V63.8824H35.8768V61.0588ZM33.0533 61.0588H35.8768V63.8824H33.0533V61.0588ZM33.0533 63.8824H35.8768V66.7059H33.0533V63.8824ZM33.0533 66.7059H35.8768V69.5294H33.0533V66.7059ZM33.0533 69.5294H35.8768V72.3529H33.0533V69.5294ZM33.0533 72.3529H35.8768V75.1765H33.0533V72.3529ZM35.8768 72.3529H38.7004V75.1765H35.8768V72.3529ZM35.8768 69.5294H38.7004V72.3529H35.8768V69.5294ZM35.8768 66.7059H38.7004V69.5294H35.8768V66.7059ZM35.8768 63.8824H38.7004V66.7059H35.8768V63.8824ZM64.1121 63.8824H66.9357V66.7059H64.1121V63.8824ZM64.1121 66.7059H66.9357V69.5294H64.1121V66.7059ZM64.1121 69.5294H66.9357V72.3529H64.1121V69.5294ZM64.1121 72.3529H66.9357V75.1765H64.1121V72.3529ZM64.1121 75.1765H66.9357V78H64.1121V75.1765ZM61.2886 75.1765H64.1121V78H61.2886V75.1765ZM58.4651 75.1765H61.2886V78H58.4651V75.1765ZM55.6415 75.1765H58.4651V78H55.6415V75.1765ZM55.6415 72.3529H58.4651V75.1765H55.6415V72.3529ZM55.6415 69.5294H58.4651V72.3529H55.6415V69.5294ZM55.6415 66.7059H58.4651V69.5294H55.6415V66.7059ZM58.4651 66.7059H61.2886V69.5294H58.4651V66.7059ZM61.2886 63.8824H64.1121V66.7059H61.2886V63.8824ZM61.2886 66.7059H64.1121V69.5294H61.2886V66.7059ZM61.2886 69.5294H64.1121V72.3529H61.2886V69.5294ZM58.4651 69.5294H61.2886V72.3529H58.4651V69.5294ZM58.4651 72.3529H61.2886V75.1765H58.4651V72.3529ZM61.2886 72.3529H64.1121V75.1765H61.2886V72.3529ZM58.4651 63.8824H61.2886V66.7059H58.4651V63.8824ZM55.6415 63.8824H58.4651V66.7059H55.6415V63.8824ZM55.6415 61.0588H58.4651V63.8824H55.6415V61.0588ZM58.4651 61.0588H61.2886V63.8824H58.4651V61.0588ZM64.1121 61.0588H66.9357V63.8824H64.1121V61.0588ZM61.2886 61.0588H64.1121V63.8824H61.2886V61.0588ZM61.2886 58.2353H64.1121V61.0588H61.2886V58.2353ZM58.4651 58.2353H61.2886V61.0588H58.4651V58.2353ZM49.9945 61.0588H52.818V63.8824H49.9945V61.0588ZM52.818 61.0588H55.6415V63.8824H52.818V61.0588ZM52.818 63.8824H55.6415V66.7059H52.818V63.8824Z" fill="black"/>
</svg>
